<svg width="33" height="33" viewBox="0 0 26.9489 33.6864" fill="none" xmlns="http://www.w3.org/2000/svg" xmlns:xlink="http://www.w3.org/1999/xlink">
	<desc>
			Created with Pixso.
	</desc>
	<defs/>
	<path id="Vector" d="M26.17 15.42L2.59 0.26C2.07 -0.07 1.41 -0.09 0.87 0.2C0.33 0.5 0 1.06 0 1.68L0 32C0 32.61 0.33 33.18 0.87 33.48C1.12 33.61 1.4 33.68 1.68 33.68C2 33.68 2.31 33.59 2.59 33.41L26.17 18.25C26.65 17.95 26.94 17.41 26.94 16.84C26.94 16.27 26.65 15.73 26.17 15.42ZM3.36 28.91L3.36 4.77L22.14 16.84L3.36 28.91Z" fill="#FFFFFF" fill-opacity="1.000000" fill-rule="nonzero"/>
</svg>
